<svg width="25" height="24" viewBox="0 0 25 24" fill="none" xmlns="http://www.w3.org/2000/svg">
<g id="cyborg" clip-path="url(#clip0_1_41)">
<path id="Vector" d="M15.8878 7.03125C15.8878 7.80647 16.5178 8.4375 17.2918 8.4375H21.4657C21.39 7.44788 21.1607 6.50213 20.7941 5.625H17.2918C16.5178 5.625 15.8878 6.25603 15.8878 7.03125Z" fill="#232536"/>
<path id="Vector_2" d="M6.76142 24H15.1858C15.5738 24 15.8878 23.6855 15.8878 23.2969V19.6875H17.2918V15.1172L10.272 9.84375H3.95331C3.56528 9.84375 3.25128 10.1582 3.25128 10.5469C3.25128 13.0373 4.27072 15.4228 6.05939 17.1428V23.2969C6.05939 23.6855 6.37339 24 6.76142 24Z" fill="#FFD050"/>
<path id="Vector_3" d="M12.3786 0C11.9905 0 11.6765 0.314484 11.6765 0.703125V1.40625H8.7391C8.44832 0.589594 7.67637 0 6.76233 0C5.60099 0 4.65625 0.946219 4.65625 2.10938C4.65625 3.27253 5.60099 4.21875 6.76233 4.21875C7.67637 4.21875 8.44832 3.62916 8.7391 2.8125H11.6765V5.625H4.52693C4.23615 4.80834 3.4642 4.21875 2.55016 4.21875C1.38882 4.21875 0.397278 5.16497 0.397278 6.32812C0.397278 7.49128 1.38882 8.4375 2.55016 8.4375C3.4642 8.4375 4.23615 7.84791 4.52693 7.03125H11.6765V9.14095L18.4157 14.2033C18.5926 14.3358 18.6968 14.5445 18.6968 14.7656V19.6875H19.3988C20.5602 19.6875 21.5049 18.7413 21.5049 17.5781V14.0625H23.6578C23.9169 14.0625 24.1548 13.9197 24.2769 13.691C24.3989 13.4624 24.3852 13.185 24.2419 12.9693L22.1147 9.84375H17.2927C15.744 9.84375 14.4846 8.58239 14.4846 7.03125C14.4846 5.48011 15.744 4.21875 17.2927 4.21875H20.0543C18.4299 1.68647 15.6007 0 12.3786 0V0Z" fill="#232536"/>
</g>
<defs>
<clipPath id="clip0_1_41">
<rect width="23.9626" height="24" fill="white" transform="translate(0.396271)"/>
</clipPath>
</defs>
</svg>
