<svg width="24" height="24" viewBox="0 0 24 24" fill="none" xmlns="http://www.w3.org/2000/svg">
<g id="economy" clip-path="url(#clip0_1_51)">
<g id="Group">
<g id="Group_2">
<path id="Vector" d="M6.01362 15.4255H3.43378C2.50343 15.4255 1.74651 16.218 1.74651 17.1922V22.9152C1.74651 23.5134 2.21137 24.0002 2.78269 24.0002H6.66462C7.23598 24.0002 7.70085 23.5134 7.70085 22.9152V17.1922C7.70085 16.218 6.94397 15.4255 6.01362 15.4255Z" fill="#232536"/>
</g>
</g>
<g id="Group_3">
<g id="Group_4">
<path id="Vector_2" d="M13.5861 11.9491H11.0063C10.0759 11.9491 9.31901 12.7417 9.31901 13.7158V22.9147C9.31901 23.5129 9.78387 23.9997 10.3552 23.9997H14.2372C14.8085 23.9997 15.2733 23.5129 15.2733 22.9147V13.7158C15.2733 12.7416 14.5165 11.9491 13.5861 11.9491Z" fill="#232536"/>
</g>
</g>
<g id="Group_5">
<g id="Group_6">
<path id="Vector_3" d="M21.2998 7.98883H18.72C17.7896 7.98883 17.0327 8.78139 17.0327 9.75551V22.9149C17.0327 23.5131 17.4975 23.9998 18.0689 23.9998H21.9508C22.5222 23.9998 22.987 23.5131 22.987 22.9149V9.75551C22.9871 8.78139 22.2301 7.98883 21.2998 7.98883Z" fill="#232536"/>
</g>
</g>
<g id="Group_7">
<g id="Group_8">
<path id="Vector_4" d="M19.2457 0.66822C18.93 0.201156 18.4169 -0.0458285 17.8726 0.00648415L13.0001 0.478516C12.456 0.531251 11.9948 0.87297 11.7664 1.39267C11.5379 1.91238 11.5899 2.50155 11.9055 2.96861L12.1775 3.37108L6.12982 7.74683L6.12364 7.75137C5.6945 8.06933 5.40934 8.54328 5.32065 9.08586C5.23197 9.62844 5.35033 10.1747 5.65399 10.624C5.95764 11.0733 6.41028 11.372 6.92846 11.4649C7.04074 11.485 7.15315 11.495 7.2648 11.495C7.66699 11.495 8.05874 11.3658 8.39409 11.1184L14.4515 6.73578L14.7323 7.15114C15.0198 7.57672 15.4715 7.81986 15.961 7.81986C16.0088 7.81986 16.0569 7.81751 16.1052 7.81287C16.6494 7.76014 17.1106 7.41837 17.339 6.89862L19.3849 2.24416C19.6134 1.72436 19.5613 1.13524 19.2457 0.66822Z" fill="#FFD050"/>
</g>
</g>
</g>
<defs>
<clipPath id="clip0_1_51">
<rect width="22.9207" height="24" fill="white" transform="translate(0.906403)"/>
</clipPath>
</defs>
</svg>
