<svg width="49" height="48" viewBox="0 0 49 48" fill="none" xmlns="http://www.w3.org/2000/svg">
<g id="Icon">
<path id="Vector" d="M25.9415 13.9138L14.9682 12.2443C14.4589 12.1648 13.9393 12.3043 13.5499 12.6343C13.1605 12.9748 12.9313 13.4638 12.9313 13.9738V35.0443C12.9313 35.5948 13.3806 36.0448 13.9303 36.0448H17.1757V30.7948C17.1757 29.8243 17.9545 29.0443 18.9235 29.0443H21.4201C22.3891 29.0443 23.1678 29.8243 23.1678 30.7948V36.0448H27.4107V15.6448C27.4092 14.7838 26.7892 14.0548 25.9415 13.9138ZM18.4233 26.7943H16.9256C16.5122 26.7943 16.1768 26.4583 16.1768 26.0443C16.1768 25.6303 16.5122 25.2943 16.9256 25.2943H18.4233C18.8366 25.2943 19.1721 25.6303 19.1721 26.0443C19.1721 26.4583 18.8366 26.7943 18.4233 26.7943ZM18.4233 23.7943H16.9256C16.5122 23.7943 16.1768 23.4583 16.1768 23.0443C16.1768 22.6303 16.5122 22.2943 16.9256 22.2943H18.4233C18.8366 22.2943 19.1721 22.6303 19.1721 23.0443C19.1721 23.4583 18.8366 23.7943 18.4233 23.7943ZM18.4233 20.7943H16.9256C16.5122 20.7943 16.1768 20.4583 16.1768 20.0443C16.1768 19.6303 16.5122 19.2943 16.9256 19.2943H18.4233C18.8366 19.2943 19.1721 19.6303 19.1721 20.0443C19.1721 20.4583 18.8366 20.7943 18.4233 20.7943ZM18.4233 17.7943H16.9256C16.5122 17.7943 16.1768 17.4583 16.1768 17.0443C16.1768 16.6303 16.5122 16.2943 16.9256 16.2943H18.4233C18.8366 16.2943 19.1721 16.6303 19.1721 17.0443C19.1721 17.4583 18.8366 17.7943 18.4233 17.7943ZM23.415 26.7943H21.9173C21.5039 26.7943 21.1685 26.4583 21.1685 26.0443C21.1685 25.6303 21.5039 25.2943 21.9173 25.2943H23.415C23.8283 25.2943 24.1638 25.6303 24.1638 26.0443C24.1638 26.4583 23.8283 26.7943 23.415 26.7943ZM23.415 23.7943H21.9173C21.5039 23.7943 21.1685 23.4583 21.1685 23.0443C21.1685 22.6303 21.5039 22.2943 21.9173 22.2943H23.415C23.8283 22.2943 24.1638 22.6303 24.1638 23.0443C24.1638 23.4583 23.8283 23.7943 23.415 23.7943ZM23.415 20.7943H21.9173C21.5039 20.7943 21.1685 20.4583 21.1685 20.0443C21.1685 19.6303 21.5039 19.2943 21.9173 19.2943H23.415C23.8283 19.2943 24.1638 19.6303 24.1638 20.0443C24.1638 20.4583 23.8283 20.7943 23.415 20.7943ZM23.415 17.7943H21.9173C21.5039 17.7943 21.1685 17.4583 21.1685 17.0443C21.1685 16.6303 21.5039 16.2943 21.9173 16.2943H23.415C23.8283 16.2943 24.1638 16.6303 24.1638 17.0443C24.1638 17.4583 23.8283 17.7943 23.415 17.7943Z" fill="#232536"/>
<path id="Vector_2" d="M35.5159 22.8869L28.4066 21.3959V36.0449H35.146C36.109 36.0449 36.8938 35.2604 36.8938 34.2944V24.5969C36.8938 23.7704 36.3307 23.0669 35.5159 22.8869ZM33.1496 33.0449H31.652C31.2386 33.0449 30.9032 32.7089 30.9032 32.2949C30.9032 31.8809 31.2386 31.5449 31.652 31.5449H33.1496C33.563 31.5449 33.8985 31.8809 33.8985 32.2949C33.8985 32.7089 33.563 33.0449 33.1496 33.0449ZM33.1496 30.0449H31.652C31.2386 30.0449 30.9032 29.7089 30.9032 29.2949C30.9032 28.8809 31.2386 28.5449 31.652 28.5449H33.1496C33.563 28.5449 33.8985 28.8809 33.8985 29.2949C33.8985 29.7089 33.563 30.0449 33.1496 30.0449ZM33.1496 27.0449H31.652C31.2386 27.0449 30.9032 26.7089 30.9032 26.2949C30.9032 25.8809 31.2386 25.5449 31.652 25.5449H33.1496C33.563 25.5449 33.8985 25.8809 33.8985 26.2949C33.8985 26.7089 33.563 27.0449 33.1496 27.0449Z" fill="#FFD050"/>
</g>
</svg>
