<svg width="24" height="23" viewBox="0 0 24 23" fill="none" xmlns="http://www.w3.org/2000/svg">
<g id="shuttle" clip-path="url(#clip0_1_69)">
<path id="Vector" d="M6.26103 6.21155L4.27151 6.36549C3.71791 6.40835 3.22486 6.69895 2.91871 7.16276L0.62424 10.6384C0.392044 10.9902 0.355132 11.4303 0.525432 11.816C0.695778 12.2016 1.04584 12.4703 1.46184 12.5348L3.28348 12.8174C3.70962 10.5524 4.72972 8.29308 6.26103 6.21155Z" fill="#FFD050"/>
<path id="Vector_2" d="M10.5866 20.1316L10.8688 21.956C10.9333 22.3727 11.2016 22.7233 11.5865 22.8939C11.7467 22.9648 11.9162 22.9999 12.0849 22.9999C12.3219 22.9999 12.5571 22.9308 12.7622 22.7949L16.2326 20.4969C16.6957 20.1902 16.9858 19.6964 17.0285 19.142L17.1822 17.1494C15.1039 18.6831 12.8481 19.7048 10.5866 20.1316Z" fill="#FFD050"/>
<path id="Vector_3" d="M9.90157 18.8667C9.96481 18.8667 10.0284 18.8614 10.0919 18.8508C11.0393 18.6922 11.9525 18.4249 12.8236 18.075L5.33655 10.5763C4.98724 11.4487 4.72038 12.3633 4.56196 13.3123C4.49953 13.6863 4.6248 14.0674 4.89252 14.3356L9.07016 18.5198C9.29245 18.7424 9.59246 18.8667 9.90157 18.8667Z" fill="#FFD050"/>
<path id="Vector_4" d="M21.5527 10.1973C23.3849 6.64969 23.4527 2.90072 23.357 1.14249C23.3242 0.540047 22.8447 0.0597456 22.2431 0.026908C21.9573 0.0112753 21.6185 0 21.2367 0C19.2737 0 16.1677 0.297785 13.2024 1.83397C10.8458 3.0548 7.75568 5.74295 5.93256 9.27567C5.95408 9.29251 5.97512 9.31039 5.99494 9.33025L14.0682 17.4161C14.088 17.436 14.1058 17.457 14.1227 17.4786C17.6499 15.6525 20.3338 12.5576 21.5527 10.1973ZM13.7719 4.86231C15.0834 3.54876 17.2175 3.54862 18.5291 4.86231C19.1645 5.49862 19.5143 6.34472 19.5143 7.24463C19.5143 8.14454 19.1645 8.99064 18.5291 9.62695C17.8734 10.2837 17.0118 10.6121 16.1505 10.6122C15.289 10.6122 14.4278 10.2838 13.7719 9.62695C13.1366 8.99064 12.7866 8.14454 12.7866 7.24463C12.7866 6.34472 13.1366 5.49862 13.7719 4.86231Z" fill="#232536"/>
<path id="Vector_5" d="M14.7233 8.67403C15.5102 9.46218 16.7907 9.46223 17.5776 8.67403C17.9588 8.29219 18.1688 7.78458 18.1688 7.24462C18.1688 6.70466 17.9588 6.19704 17.5776 5.81525C17.1842 5.42115 16.6673 5.22412 16.1505 5.22412C15.6336 5.22412 15.1168 5.42115 14.7233 5.81525C14.3421 6.19704 14.1321 6.70466 14.1321 7.24462C14.1321 7.78458 14.3421 8.29224 14.7233 8.67403Z" fill="#232536"/>
<path id="Vector_6" d="M1.10606 18.954C1.27824 18.954 1.45043 18.8882 1.58176 18.7566L3.77828 16.5566C4.04103 16.2935 4.04103 15.8668 3.77828 15.6037C3.51559 15.3405 3.08958 15.3405 2.82684 15.6037L0.630314 17.8036C0.367573 18.0668 0.367573 18.4934 0.630314 18.7566C0.761685 18.8881 0.933872 18.954 1.10606 18.954Z" fill="#FFD050"/>
<path id="Vector_7" d="M5.79135 17.6201C5.52865 17.3569 5.10265 17.3569 4.83991 17.6201L0.616887 21.8497C0.354145 22.1129 0.354145 22.5395 0.616887 22.8026C0.748258 22.9342 0.920444 23 1.09263 23C1.26482 23 1.437 22.9342 1.56833 22.8026L5.7913 18.573C6.05409 18.3099 6.05409 17.8832 5.79135 17.6201Z" fill="#FFD050"/>
<path id="Vector_8" d="M6.85277 19.6359L4.65628 21.8359C4.39354 22.099 4.39354 22.5256 4.65628 22.7888C4.78766 22.9204 4.95984 22.9862 5.13198 22.9862C5.30412 22.9862 5.47635 22.9204 5.60768 22.7888L7.80421 20.5888C8.06695 20.3257 8.06695 19.8991 7.80421 19.6359C7.54151 19.3727 7.11551 19.3727 6.85277 19.6359Z" fill="#FFD050"/>
</g>
<defs>
<clipPath id="clip0_1_69">
<rect width="22.9641" height="23" fill="white" transform="translate(0.419647)"/>
</clipPath>
</defs>
</svg>
